<svg width="40" height="40" viewBox="0 0 24 24" fill="none" xmlns="http://www.w3.org/2000/svg">
  <path d="M12 2C8.5 2 6 4.5 6 8C6 9.5 6.5 10.8 7.2 12C7.5 12.5 7.8 13 8 13.5C8.2 14 8.3 14.5 8.3 15C8.3 16.1 7.4 17 6.3 17H17.7C16.6 17 15.7 16.1 15.7 15C15.7 14.5 15.8 14 16 13.5C16.2 13 16.5 12.5 16.8 12C17.5 10.8 18 9.5 18 8C18 4.5 15.5 2 12 2Z" fill="white"/>
  <path d="M12 4C9.5 4 7.5 6 7.5 8.5C7.5 9.5 8 10.5 8.5 11.5C9 12.5 9.5 13.5 10 14.5C10.5 15.5 11 16.5 11.5 17.5H12.5C13 16.5 13.5 15.5 14 14.5C14.5 13.5 15 12.5 15.5 11.5C16 10.5 16.5 9.5 16.5 8.5C16.5 6 14.5 4 12 4Z" fill="white"/>
</svg>
